<?xml version="1.0" encoding="UTF-8"?>
<!DOCTYPE svg PUBLIC "-//W3C//DTD SVG 1.1//EN" "http://www.w3.org/Graphics/SVG/1.1/DTD/svg11.dtd">
<svg xmlns="http://www.w3.org/2000/svg" version="1.1" width="238px" height="238px" style="shape-rendering:geometricPrecision; text-rendering:geometricPrecision; image-rendering:optimizeQuality; fill-rule:evenodd; clip-rule:evenodd" xmlns:xlink="http://www.w3.org/1999/xlink">
<g><path style="opacity:0.881" fill="#050505" d="M 46.5,-0.5 C 48.1667,-0.5 49.8333,-0.5 51.5,-0.5C 51.8333,0.833333 52.1667,0.833333 52.5,-0.5C 59.5,-0.5 66.5,-0.5 73.5,-0.5C 73.8333,0.833333 74.1667,0.833333 74.5,-0.5C 75.1667,-0.5 75.8333,-0.5 76.5,-0.5C 76.4088,1.69772 77.0755,2.03105 78.5,0.5C 80.0962,5.27801 80.7629,10.6113 80.5,16.5C 105.5,16.5 130.5,16.5 155.5,16.5C 156.269,12.757 156.602,9.42371 156.5,6.5C 157.401,5.70951 158.068,4.70951 158.5,3.5C 159.239,3.63101 159.906,3.46434 160.5,3C 159.829,2.01381 159.829,0.847141 160.5,-0.5C 161.167,-0.5 161.833,-0.5 162.5,-0.5C 162.833,0.833333 163.167,0.833333 163.5,-0.5C 171.167,-0.5 178.833,-0.5 186.5,-0.5C 186.842,0.338246 187.508,0.67158 188.5,0.5C 188.5,0.833333 188.5,1.16667 188.5,1.5C 188.5,2.83333 189.167,3.5 190.5,3.5C 191.373,7.76846 191.706,12.1018 191.5,16.5C 201.506,16.3335 211.506,16.5002 221.5,17C 222.5,17.3333 223.5,17.6667 224.5,18C 223.262,18.69 223.262,19.19 224.5,19.5C 224.738,21.4044 225.738,22.7377 227.5,23.5C 228.322,35.9822 228.655,48.4822 228.5,61C 227.142,62.8316 226.808,64.6649 227.5,66.5C 226.975,67.1924 226.308,67.6924 225.5,68C 226.252,68.6708 226.586,69.5041 226.5,70.5C 225.506,73.8969 225.84,77.2302 227.5,80.5C 227.906,125.445 228.239,170.778 228.5,216.5C 228.426,221.741 226.259,225.741 222,228.5C 188.77,227.396 155.937,227.396 123.5,228.5C 122.895,226.974 121.729,225.974 120,225.5C 113.321,226.187 106.654,226.521 100,226.5C 93.5307,225.182 87.0307,224.182 80.5,223.5C 80.5,225.167 80.5,226.833 80.5,228.5C 60.3913,227.221 39.8913,227.221 19,228.5C 17.3333,227.833 15.6667,227.167 14,226.5C 13.6667,226.833 13.3333,227.167 13,227.5C 11.9032,225.947 10.5699,224.614 9,223.5C 8.50007,207.17 8.3334,190.837 8.5,174.5C 9.39092,173.739 10.0576,172.739 10.5,171.5C 10.0431,170.702 9.37644,170.369 8.5,170.5C 8.17415,137.094 8.50748,103.76 9.5,70.5C 10.8333,70.5 11.5,69.8333 11.5,68.5C 10.4489,67.7777 9.78219,66.7777 9.5,65.5C 10.8852,64.0527 10.5518,63.0527 8.5,62.5C 8.5,49.1667 8.5,35.8333 8.5,22.5C 10.2027,23.6602 10.8693,22.9935 10.5,20.5C 9.91297,19.2334 9.91297,18.2334 10.5,17.5C 11.5174,20.028 12.6841,20.028 14,17.5C 14.3333,17.8333 14.6667,18.1667 15,18.5C 24.9069,16.5396 35.0736,15.873 45.5,16.5C 45.3345,12.4862 45.5012,8.48617 46,4.5C 47.6718,3.49822 48.8384,2.33156 49.5,1C 48.2625,0.76791 47.2625,0.26791 46.5,-0.5 Z M 173.5,16.5 C 174.167,16.5 174.5,16.8333 174.5,17.5C 174.666,23.1764 174.499,28.8431 174,34.5C 173.598,33.1279 173.098,31.7946 172.5,30.5C 173.005,26.2176 173.338,21.5509 173.5,16.5 Z M 63.5,20.5 C 63.7451,22.7448 63.7451,25.0781 63.5,27.5C 62.2083,25.7765 62.2083,23.4432 63.5,20.5 Z M 70.5,103.5 C 72.3792,104.341 74.3792,104.675 76.5,104.5C 77.4345,105.568 77.7678,106.901 77.5,108.5C 77.5,111.5 77.5,114.5 77.5,117.5C 72.5,117.5 67.5,117.5 62.5,117.5C 62.7493,112.801 63.0827,108.467 63.5,104.5C 63.8333,104.5 64.1667,104.5 64.5,104.5C 66.7354,104.795 68.7354,104.461 70.5,103.5 Z M 94.5,105.5 C 95.7079,104.766 97.0413,104.433 98.5,104.5C 102.664,104.126 106.664,104.126 110.5,104.5C 110.5,108.833 110.5,113.167 110.5,117.5C 105.167,117.5 99.8333,117.5 94.5,117.5C 94.8745,113.664 94.8745,109.664 94.5,105.5 Z M 131.5,103.5 C 135.064,104.423 138.731,104.756 142.5,104.5C 142.5,105.5 142.5,106.5 142.5,107.5C 142.5,110.833 142.5,114.167 142.5,117.5C 137.167,117.5 131.833,117.5 126.5,117.5C 126.762,113.32 126.762,109.32 126.5,105.5C 128.306,104.976 129.972,104.309 131.5,103.5 Z M 171.5,103.5 C 172.15,103.804 172.817,104.137 173.5,104.5C 174.492,108.783 174.826,113.116 174.5,117.5C 169.156,117.666 163.823,117.499 158.5,117C 158.887,112.831 159.22,108.664 159.5,104.5C 163.702,104.817 167.702,104.483 171.5,103.5 Z M 74.5,136.5 C 75.791,136.263 76.791,136.596 77.5,137.5C 77.5,141.5 77.5,145.5 77.5,149.5C 72.5,149.5 67.5,149.5 62.5,149.5C 62.9659,145.663 62.9659,141.997 62.5,138.5C 63.4737,136.915 64.9737,135.915 67,135.5C 69.6014,136.23 72.1014,136.563 74.5,136.5 Z M 94.5,136.5 C 99.8333,136.5 105.167,136.5 110.5,136.5C 110.5,140.833 110.5,145.167 110.5,149.5C 105.167,149.5 99.8333,149.5 94.5,149.5C 94.5,145.167 94.5,140.833 94.5,136.5 Z M 159.5,136.5 C 164.5,136.5 169.5,136.5 174.5,136.5C 174.5,140.833 174.5,145.167 174.5,149.5C 169.156,149.666 163.823,149.499 158.5,149C 159.375,144.951 159.708,140.784 159.5,136.5 Z M 65.5,167.5 C 69.3998,168.43 73.3998,168.763 77.5,168.5C 77.5,173.167 77.5,177.833 77.5,182.5C 72.5,182.5 67.5,182.5 62.5,182.5C 62.5,177.833 62.5,173.167 62.5,168.5C 63.791,168.737 64.791,168.404 65.5,167.5 Z M 105.5,167.5 C 107.042,168.301 108.708,168.634 110.5,168.5C 110.5,173.167 110.5,177.833 110.5,182.5C 105.167,182.5 99.8333,182.5 94.5,182.5C 94.5,177.833 94.5,173.167 94.5,168.5C 98.3714,168.815 102.038,168.482 105.5,167.5 Z M 128.5,167.5 C 130.834,168.215 133.167,168.548 135.5,168.5C 137.833,168.5 140.167,168.5 142.5,168.5C 142.5,169.5 142.5,170.5 142.5,171.5C 142.5,175.167 142.5,178.833 142.5,182.5C 137.125,182.828 131.792,182.495 126.5,181.5C 127.833,178.5 127.833,175.5 126.5,172.5C 127.028,170.664 127.694,168.997 128.5,167.5 Z M 170.5,167.5 C 171.688,168.684 172.855,168.684 174,167.5C 174.499,172.489 174.666,177.489 174.5,182.5C 169.456,182.827 164.456,182.494 159.5,181.5C 159.069,180.707 158.735,179.873 158.5,179C 158.997,175.681 159.33,172.347 159.5,169C 163.356,168.823 167.023,168.323 170.5,167.5 Z"/></g>
<g><path style="opacity:0.004" fill="#000000" d="M 78.5,-0.5 C 78.8333,-0.5 79.1667,-0.5 79.5,-0.5C 79.3147,0.170143 78.9813,0.170143 78.5,-0.5 Z"/></g>
<g><path style="opacity:0.004" fill="#000000" d="M 157.5,-0.5 C 157.833,-0.5 158.167,-0.5 158.5,-0.5C 158.5,-0.166667 158.5,0.166667 158.5,0.5C 158.167,0.166667 157.833,-0.166667 157.5,-0.5 Z"/></g>
<g><path style="opacity:0.004" fill="#000000" d="M 188.5,0.5 C 188.5,0.166667 188.5,-0.166667 188.5,-0.5C 189.167,-0.5 189.833,-0.5 190.5,-0.5C 190.158,0.338246 189.492,0.67158 188.5,0.5 Z"/></g>
<g><path style="opacity:0.004" fill="#c9c9c9" d="M 159.5,-0.5 C 159.833,-0.5 160.167,-0.5 160.5,-0.5C 159.829,0.847141 159.829,2.01381 160.5,3C 159.906,3.46434 159.239,3.63101 158.5,3.5C 157.167,2.5 157.167,1.5 158.5,0.5C 159.167,0.5 159.5,0.166667 159.5,-0.5 Z"/></g>
<g><path style="opacity:0.004" fill="#fefffe" d="M 188.5,1.5 C 189.5,1.83333 190.167,2.5 190.5,3.5C 189.167,3.5 188.5,2.83333 188.5,1.5 Z"/></g>
<g><path style="opacity:0.004" fill="#bababa" d="M 158.5,3.5 C 158.068,4.70951 157.401,5.70951 156.5,6.5C 155.326,4.63216 155.993,3.63216 158.5,3.5 Z"/></g>
<g><path style="opacity:0.004" fill="#000000" d="M 12.5,14.5 C 13.525,14.8966 13.6917,15.5632 13,16.5C 12.5357,15.9056 12.369,15.2389 12.5,14.5 Z"/></g>
<g><path style="opacity:0.004" fill="#000000" d="M 223.5,14.5 C 224.525,14.8966 224.692,15.5632 224,16.5C 223.536,15.9056 223.369,15.2389 223.5,14.5 Z"/></g>
<g><path style="opacity:0.008" fill="#777777" d="M 174.5,17.5 C 174.5,16.8333 174.167,16.5 173.5,16.5C 173.127,15.3125 173.794,15.3125 175.5,16.5C 175.376,17.1067 175.043,17.44 174.5,17.5 Z"/></g>
<g><path style="opacity:0.004" fill="#000000" d="M 225.5,19.5 C 225.369,18.7611 225.536,18.0944 226,17.5C 226.692,18.4368 226.525,19.1034 225.5,19.5 Z"/></g>
<g><path style="opacity:0.004" fill="#fefffe" d="M 10.5,20.5 C 10.8693,22.9935 10.2027,23.6602 8.5,22.5C 8.83333,21.5 9.5,20.8333 10.5,20.5 Z"/></g>
<g><path style="opacity:0.039" fill="#3f3f3f" d="M 63.5,27.5 C 63.7451,25.0781 63.7451,22.7448 63.5,20.5C 64.3249,18.6782 64.6582,17.0115 64.5,15.5C 65.9841,19.3992 66.4841,23.3992 66,27.5C 65.2303,28.5981 64.397,28.5981 63.5,27.5 Z"/></g>
<g><path style="opacity:0.008" fill="#757575" d="M 224.5,19.5 C 224.833,19.5 225.167,19.5 225.5,19.5C 226.6,20.6049 227.267,21.9382 227.5,23.5C 225.738,22.7377 224.738,21.4044 224.5,19.5 Z"/></g>
<g><path style="opacity:0.114" fill="#212121" d="M 61.5,66.5 C 59.901,66.2322 58.5676,66.5655 57.5,67.5C 57.1667,67.5 56.8333,67.5 56.5,67.5C 55.5,66.1667 54.5,66.1667 53.5,67.5C 53.1667,67.5 52.8333,67.5 52.5,67.5C 52.1583,66.6618 51.4916,66.3284 50.5,66.5C 49.3047,62.7139 48.638,62.7139 48.5,66.5C 46.1667,66.5 43.8333,66.5 41.5,66.5C 41.33,65.1779 41.6634,64.0113 42.5,63C 49.2434,62.45 55.5767,63.6166 61.5,66.5 Z"/></g>
<g><path style="opacity:0.008" fill="#b0b0b0" d="M 8.5,62.5 C 10.5518,63.0527 10.8852,64.0527 9.5,65.5C 8.89022,64.609 8.55688,63.609 8.5,62.5 Z"/></g>
<g><path style="opacity:0.016" fill="#626262" d="M 31.5,66.5 C 32.4486,65.8476 33.6153,65.5143 35,65.5C 36.6811,65.6083 37.8478,66.2749 38.5,67.5C 38.1667,67.5 37.8333,67.5 37.5,67.5C 37.1667,66.1667 36.8333,66.1667 36.5,67.5C 36.1667,67.5 35.8333,67.5 35.5,67.5C 34.4324,66.5655 33.099,66.2322 31.5,66.5 Z"/></g>
<g><path style="opacity:0.004" fill="#fefffe" d="M 11.5,68.5 C 11.5,69.8333 10.8333,70.5 9.5,70.5C 9.83333,69.5 10.5,68.8333 11.5,68.5 Z"/></g>
<g><path style="opacity:0.037" fill="#3c3c3c" d="M 226.5,70.5 C 228.285,73.7016 228.618,77.0349 227.5,80.5C 225.84,77.2302 225.506,73.8969 226.5,70.5 Z"/></g>
<g><path style="opacity:0.016" fill="#707070" d="M 70.5,103.5 C 68.7354,104.461 66.7354,104.795 64.5,104.5C 65.1342,103.053 66.3009,102.387 68,102.5C 69.0698,102.528 69.9032,102.861 70.5,103.5 Z"/></g>
<g><path style="opacity:0.016" fill="#989898" d="M 98.5,104.5 C 97.0413,104.433 95.7079,104.766 94.5,105.5C 94.8691,101.987 96.2025,101.653 98.5,104.5 Z"/></g>
<g><path style="opacity:0.016" fill="#7e7e7e" d="M 131.5,103.5 C 129.972,104.309 128.306,104.976 126.5,105.5C 126.586,104.504 126.252,103.671 125.5,103C 127.488,102.82 129.488,102.986 131.5,103.5 Z"/></g>
<g><path style="opacity:0.016" fill="#757575" d="M 76.5,104.5 C 76.56,103.957 76.8933,103.624 77.5,103.5C 79.8963,105.506 79.8963,107.172 77.5,108.5C 77.7678,106.901 77.4345,105.568 76.5,104.5 Z"/></g>
<g><path style="opacity:0.008" fill="#575757" d="M 63.5,104.5 C 63.0827,108.467 62.7493,112.801 62.5,117.5C 61.8826,117.611 61.3826,117.944 61,118.5C 61.1267,114.618 60.9601,110.785 60.5,107C 60.9304,105.566 61.7638,104.399 63,103.5C 63.3988,103.728 63.5654,104.062 63.5,104.5 Z"/></g>
<g><path style="opacity:0.03" fill="#3f3f3f" d="M 142.5,107.5 C 144.067,110.917 144.567,114.583 144,118.5C 143.617,117.944 143.117,117.611 142.5,117.5C 142.5,114.167 142.5,110.833 142.5,107.5 Z"/></g>
<g><path style="opacity:0.046" fill="#383838" d="M 77.5,149.5 C 77.5,145.5 77.5,141.5 77.5,137.5C 78.7514,136.528 78.418,135.861 76.5,135.5C 75.5836,135.543 74.9169,135.876 74.5,136.5C 72.1014,136.563 69.6014,136.23 67,135.5C 64.9737,135.915 63.4737,136.915 62.5,138.5C 61.5655,137.432 61.2322,136.099 61.5,134.5C 67.5895,133.387 73.5895,132.553 79.5,132C 78.3659,133.016 78.6992,133.683 80.5,134C 79.8431,137.686 79.8431,141.519 80.5,145.5C 79.3063,146.799 78.3063,148.132 77.5,149.5 Z"/></g>
<g><path style="opacity:0.008" fill="#b8b8b8" d="M 74.5,136.5 C 74.9169,135.876 75.5836,135.543 76.5,135.5C 78.418,135.861 78.7514,136.528 77.5,137.5C 76.791,136.596 75.791,136.263 74.5,136.5 Z"/></g>
<g><path style="opacity:0.02" fill="#606060" d="M 135.5,168.5 C 133.167,168.548 130.834,168.215 128.5,167.5C 129.449,166.848 130.615,166.514 132,166.5C 133.681,166.608 134.848,167.275 135.5,168.5 Z"/></g>
<g><path style="opacity:0.02" fill="#757575" d="M 8.5,170.5 C 9.37644,170.369 10.0431,170.702 10.5,171.5C 10.0576,172.739 9.39092,173.739 8.5,174.5C 8.5,173.167 8.5,171.833 8.5,170.5 Z"/></g>
<g><path style="opacity:0.031" fill="#444444" d="M 142.5,171.5 C 143.421,174.14 144.088,176.973 144.5,180C 144.316,181.376 143.649,182.209 142.5,182.5C 142.5,178.833 142.5,175.167 142.5,171.5 Z"/></g>
<g><path style="opacity:0.045" fill="#212121" d="M 123.5,228.5 C 109.41,228.013 95.0768,228.013 80.5,228.5C 80.5,226.833 80.5,225.167 80.5,223.5C 87.0307,224.182 93.5307,225.182 100,226.5C 106.654,226.521 113.321,226.187 120,225.5C 121.729,225.974 122.895,226.974 123.5,228.5 Z"/></g>
</svg>
