<?xml version="1.0" encoding="UTF-8"?>
<!DOCTYPE svg PUBLIC "-//W3C//DTD SVG 1.1//EN" "http://www.w3.org/Graphics/SVG/1.1/DTD/svg11.dtd">
<svg xmlns="http://www.w3.org/2000/svg" version="1.1" width="250px" height="250px" style="shape-rendering:geometricPrecision; text-rendering:geometricPrecision; image-rendering:optimizeQuality; fill-rule:evenodd; clip-rule:evenodd" xmlns:xlink="http://www.w3.org/1999/xlink">
<g><path style="opacity:0.976" fill="#000000" d="M 62.5,30.5 C 104.894,30.0164 147.227,30.5164 189.5,32C 193.788,34.2917 196.622,37.7917 198,42.5C 206.333,61.5 214.667,80.5 223,99.5C 227.414,100.303 231.914,100.803 236.5,101C 243.358,105.225 244.025,110.225 238.5,116C 234.605,117.266 230.605,117.766 226.5,117.5C 226.667,144.502 226.5,171.502 226,198.5C 224.657,204.384 221.157,208.217 215.5,210C 204.167,210.667 192.833,210.667 181.5,210C 172.673,205.177 169.006,197.677 170.5,187.5C 139.833,187.5 109.167,187.5 78.5,187.5C 79.9941,197.677 76.3275,205.177 67.5,210C 56.1667,210.667 44.8333,210.667 33.5,210C 28.1239,208.444 24.6239,204.944 23,199.5C 22.5,172.169 22.3334,144.835 22.5,117.5C 18.3951,117.766 14.3951,117.266 10.5,116C 4.97507,110.225 5.64174,105.225 12.5,101C 17.0855,100.803 21.5855,100.303 26,99.5C 35.0587,78.3821 44.3921,57.3821 54,36.5C 56.6713,34.0976 59.5046,32.0976 62.5,30.5 Z M 67.5,46.5 C 105.501,46.3333 143.501,46.5 181.5,47C 189.5,64.6667 197.5,82.3333 205.5,100C 151.5,100.667 97.5,100.667 43.5,100C 51.6432,82.215 59.6432,64.3817 67.5,46.5 Z M 52.5,132.5 C 61.5062,132.334 70.5062,132.5 79.5,133C 84.1433,135.072 85.6433,138.572 84,143.5C 83.1667,145 82,146.167 80.5,147C 70.8333,147.667 61.1667,147.667 51.5,147C 44.7331,141.766 45.0664,136.933 52.5,132.5 Z M 169.5,132.5 C 178.506,132.334 187.506,132.5 196.5,133C 204.06,137.293 204.393,141.96 197.5,147C 187.833,147.667 178.167,147.667 168.5,147C 162.946,141.724 163.279,136.891 169.5,132.5 Z"/></g>
</svg>
