<?xml version="1.0" encoding="UTF-8"?>
<!DOCTYPE svg PUBLIC "-//W3C//DTD SVG 1.1//EN" "http://www.w3.org/Graphics/SVG/1.1/DTD/svg11.dtd">
<svg xmlns="http://www.w3.org/2000/svg" version="1.1" width="258px" height="258px" style="shape-rendering:geometricPrecision; text-rendering:geometricPrecision; image-rendering:optimizeQuality; fill-rule:evenodd; clip-rule:evenodd" xmlns:xlink="http://www.w3.org/1999/xlink">
<g><path style="opacity:0.893" fill="#040404" d="M 231.5,21.5 C 231.5,23.5 232.5,24.5 234.5,24.5C 234.938,25.5063 235.604,25.5063 236.5,24.5C 236.5,25.1667 236.5,25.8333 236.5,26.5C 236.833,27.5 237.5,28.1667 238.5,28.5C 239.391,29.1098 240.391,29.4431 241.5,29.5C 242.43,32.3966 244.097,34.7299 246.5,36.5C 246.182,39.4815 247.182,41.8148 249.5,43.5C 250.167,43.8333 250.833,44.1667 251.5,44.5C 251.833,44.5 252.167,44.5 252.5,44.5C 253.569,47.26 254.569,50.0933 255.5,53C 254.833,54.857 255.5,56.357 257.5,57.5C 257.5,59.5 257.5,61.5 257.5,63.5C 256.167,63.8333 256.167,64.1667 257.5,64.5C 257.5,67.8333 257.5,71.1667 257.5,74.5C 256.167,74.8333 256.167,75.1667 257.5,75.5C 257.5,77.1667 257.5,78.8333 257.5,80.5C 256.167,80.8333 256.167,81.1667 257.5,81.5C 257.5,81.8333 257.5,82.1667 257.5,82.5C 256.167,83.1667 256.167,83.8333 257.5,84.5C 257.5,85.1667 257.5,85.8333 257.5,86.5C 256.167,87.1667 256.167,87.8333 257.5,88.5C 257.5,89.1667 257.5,89.8333 257.5,90.5C 256.167,90.8333 256.167,91.1667 257.5,91.5C 257.5,91.8333 257.5,92.1667 257.5,92.5C 256.833,92.5 256.5,92.8333 256.5,93.5C 255.233,92.913 254.233,92.913 253.5,93.5C 253.709,94.086 254.043,94.586 254.5,95C 253.852,99.413 252.518,103.58 250.5,107.5C 249.847,108.807 249.18,110.14 248.5,111.5C 248.624,112.107 248.957,112.44 249.5,112.5C 249.5,113.167 249.167,113.5 248.5,113.5C 247.883,113.389 247.383,113.056 247,112.5C 244.74,113.673 242.574,115.006 240.5,116.5C 239.571,117.689 239.238,119.022 239.5,120.5C 233.386,121.491 230.719,124.825 231.5,130.5C 231.033,133.297 229.367,134.631 226.5,134.5C 225.554,139.974 225.554,145.307 226.5,150.5C 224.155,152.357 223.822,154.69 225.5,157.5C 226.823,171.51 226.823,186.843 225.5,203.5C 223.519,204.105 223.185,205.105 224.5,206.5C 224.011,207.995 223.345,209.329 222.5,210.5C 220.563,209.805 219.563,210.805 219.5,213.5C 218.797,215.716 217.464,217.549 215.5,219C 211.824,221.679 207.991,224.179 204,226.5C 196.221,226.203 188.387,226.203 180.5,226.5C 180.611,225.883 180.944,225.383 181.5,225C 179.866,224.506 178.199,224.34 176.5,224.5C 175.713,222.896 174.38,222.229 172.5,222.5C 170.589,221.925 168.922,220.925 167.5,219.5C 167.762,218.022 167.429,216.689 166.5,215.5C 165.893,215.624 165.56,215.957 165.5,216.5C 163.563,214.909 161.563,213.242 159.5,211.5C 158.37,208.547 157.036,205.714 155.5,203C 155.823,190.864 155.823,178.364 155.5,165.5C 156.302,166.952 156.802,168.618 157,170.5C 157.167,169.5 157.333,168.5 157.5,167.5C 157.36,165.97 156.693,164.97 155.5,164.5C 155.5,154.833 155.5,145.167 155.5,135.5C 155.938,135.565 156.272,135.399 156.5,135C 155.386,133.43 154.053,132.097 152.5,131C 152.833,130.667 153.167,130.333 153.5,130C 151.608,127.365 149.274,126.532 146.5,127.5C 146.5,125.5 145.5,124.5 143.5,124.5C 140.605,122.276 137.605,119.276 134.5,115.5C 134.218,114.222 133.551,113.222 132.5,112.5C 133.5,112.5 134.5,112.5 135.5,112.5C 135.433,111.041 135.766,109.708 136.5,108.5C 137.644,107.151 137.644,106.817 136.5,107.5C 134.65,108.872 133.317,108.372 132.5,106C 135,105.167 135.167,104 133,102.5C 132,105.167 131,105.167 130,102.5C 130.817,98.4948 130.65,94.4948 129.5,90.5C 129.539,88.7761 129.206,88.4427 128.5,89.5C 127.698,88.0484 127.198,86.3817 127,84.5C 126.667,84.1667 126.333,83.8333 126,83.5C 126.109,84.7688 125.942,85.7688 125.5,86.5C 124.517,82.7016 124.183,78.7016 124.5,74.5C 125.309,76.2922 125.809,78.2922 126,80.5C 126.167,79.1667 126.333,77.8333 126.5,76.5C 125.956,74.326 125.956,72.326 126.5,70.5C 126.043,69.7025 125.376,69.3691 124.5,69.5C 124.335,66.1501 124.502,62.8168 125,59.5C 126.131,56.5547 126.964,53.5547 127.5,50.5C 128.216,48.4437 128.883,46.277 129.5,44C 129.272,43.6012 128.938,43.4346 128.5,43.5C 129.551,42.7777 130.218,41.7777 130.5,40.5C 131.167,40.5 131.5,40.8333 131.5,41.5C 131.833,44.1667 132.167,44.1667 132.5,41.5C 132.328,40.5084 132.662,39.8417 133.5,39.5C 135.484,39.6168 137.15,38.9501 138.5,37.5C 139.711,38.2739 139.711,39.1072 138.5,40C 139.094,40.4643 139.761,40.631 140.5,40.5C 141.11,41.391 141.443,42.391 141.5,43.5C 141.5,43.8333 141.5,44.1667 141.5,44.5C 142.925,46.0311 143.591,45.6977 143.5,43.5C 144.42,42.9326 144.754,43.5992 144.5,45.5C 145.5,45.5 146.5,45.5 147.5,45.5C 147.5,46.5 147.5,47.5 147.5,48.5C 146.075,46.9689 145.409,47.3023 145.5,49.5C 145.833,50.8333 146.167,50.8333 146.5,49.5C 147.167,49.5 147.833,49.5 148.5,49.5C 149.167,49.5 149.5,49.8333 149.5,50.5C 149.833,51.8333 150.167,51.8333 150.5,50.5C 152.977,51.12 152.977,52.12 150.5,53.5C 151.246,54.7362 151.579,56.0695 151.5,57.5C 152.552,57.3505 153.552,57.5172 154.5,58C 160.201,64.1728 165.868,70.3395 171.5,76.5C 171.973,77.9063 172.973,78.573 174.5,78.5C 175.091,79.1515 175.757,79.8182 176.5,80.5C 183.134,81.4967 189.8,81.83 196.5,81.5C 198.552,80.9473 198.885,79.9473 197.5,78.5C 197.5,78.1667 197.5,77.8333 197.5,77.5C 198.833,75.8333 198.833,74.1667 197.5,72.5C 197.5,72.1667 197.5,71.8333 197.5,71.5C 198.833,69.5 198.833,67.5 197.5,65.5C 196.4,64.3951 195.733,63.0618 195.5,61.5C 195.027,60.0937 194.027,59.427 192.5,59.5C 191.662,59.1583 191.328,58.4916 191.5,57.5C 191.663,54.1022 189.829,51.7689 186,50.5C 185.667,49.1667 185.333,47.8333 185,46.5C 184.329,47.2524 183.496,47.5858 182.5,47.5C 181.609,46.8902 180.609,46.5569 179.5,46.5C 178.833,46.5 178.5,46.1667 178.5,45.5C 179.833,45.1667 179.833,44.8333 178.5,44.5C 177.833,43.1667 176.833,42.1667 175.5,41.5C 174.127,41.6567 172.793,41.49 171.5,41C 165.912,36.2473 160.912,31.0806 156.5,25.5C 157.66,23.7973 156.993,23.1307 154.5,23.5C 153.776,21.7816 153.109,19.9483 152.5,18C 154.167,16.6667 155.833,15.3333 157.5,14C 156.289,13.1072 156.289,12.2739 157.5,11.5C 158.611,12.6113 159.945,13.278 161.5,13.5C 166.002,11.7363 170.668,10.5696 175.5,10C 175.167,9.66667 174.833,9.33333 174.5,9C 189.145,7.48923 202.811,8.48923 215.5,12C 214.112,12.8893 214.278,13.3893 216,13.5C 216.873,13.2645 217.707,12.9312 218.5,12.5C 221.54,14.5715 224.373,16.9048 227,19.5C 227.604,17.3143 228.77,17.1476 230.5,19C 231.252,19.6708 231.586,20.5041 231.5,21.5 Z"/></g>
<g><path style="opacity:0.004" fill="#000000" d="M 159.5,9.5 C 160.833,10.1667 160.833,10.1667 159.5,9.5 Z"/></g>
<g><path style="opacity:0.006" fill="#000000" d="M 226.5,14.5 C 228.337,14.6395 228.67,15.3061 227.5,16.5C 226.702,16.0431 226.369,15.3764 226.5,14.5 Z"/></g>
<g><path style="opacity:0.004" fill="#000000" d="M 231.5,17.5 C 232.833,18.1667 232.833,18.1667 231.5,17.5 Z"/></g>
<g><path style="opacity:0.005" fill="#000000" d="M 234.5,19.5 C 235.289,19.7828 235.956,20.2828 236.5,21C 235.184,21.5281 234.517,21.0281 234.5,19.5 Z"/></g>
<g><path style="opacity:0.006" fill="#000000" d="M 236.5,24.5 C 236.639,22.663 237.306,22.3296 238.5,23.5C 238.043,24.2975 237.376,24.6309 236.5,24.5 Z"/></g>
<g><path style="opacity:0.016" fill="#909090" d="M 154.5,23.5 C 156.993,23.1307 157.66,23.7973 156.5,25.5C 155.167,25.5 154.5,24.8333 154.5,23.5 Z"/></g>
<g><path style="opacity:0.024" fill="#7d7d7d" d="M 231.5,21.5 C 232.833,22.1667 233.833,23.1667 234.5,24.5C 232.5,24.5 231.5,23.5 231.5,21.5 Z"/></g>
<g><path style="opacity:0.005" fill="#000000" d="M 239.5,24.5 C 240.289,24.7828 240.956,25.2828 241.5,26C 240.184,26.5281 239.517,26.0281 239.5,24.5 Z"/></g>
<g><path style="opacity:0.004" fill="#fefffe" d="M 236.5,26.5 C 237.833,26.5 238.5,27.1667 238.5,28.5C 237.5,28.1667 236.833,27.5 236.5,26.5 Z"/></g>
<g><path style="opacity:0.004" fill="#000000" d="M 241.5,29.5 C 241.639,27.663 242.306,27.3296 243.5,28.5C 243.043,29.2975 242.376,29.6309 241.5,29.5 Z"/></g>
<g><path style="opacity:0.004" fill="#000000" d="M 244.5,30.5 C 245.833,31.1667 245.833,31.1667 244.5,30.5 Z"/></g>
<g><path style="opacity:0.005" fill="#000000" d="M 132.5,38.5 C 131.833,38.8333 131.167,39.1667 130.5,39.5C 130.711,37.5759 131.377,37.2426 132.5,38.5 Z"/></g>
<g><path style="opacity:0.004" fill="#f2f2f2" d="M 132.5,38.5 C 133.167,38.5 133.5,38.8333 133.5,39.5C 132.662,39.8417 132.328,40.5084 132.5,41.5C 132.167,41.5 131.833,41.5 131.5,41.5C 131.5,40.8333 131.167,40.5 130.5,40.5C 130.5,40.1667 130.5,39.8333 130.5,39.5C 131.167,39.1667 131.833,38.8333 132.5,38.5 Z"/></g>
<g><path style="opacity:0.016" fill="#4a4a4a" d="M 249.5,40.5 C 249.5,41.5 249.5,42.5 249.5,43.5C 247.182,41.8148 246.182,39.4815 246.5,36.5C 247.117,36.3893 247.617,36.056 248,35.5C 248.318,37.0609 249.151,38.2276 250.5,39C 249.833,39.3333 249.167,39.6667 248.5,40C 248.728,40.3988 249.062,40.5654 249.5,40.5 Z"/></g>
<g><path style="opacity:0.005" fill="#000000" d="M 140.5,40.5 C 142.048,40.8212 142.715,41.8212 142.5,43.5C 142.167,43.5 141.833,43.5 141.5,43.5C 141.443,42.391 141.11,41.391 140.5,40.5 Z"/></g>
<g><path style="opacity:0.004" fill="#d6d6d6" d="M 249.5,40.5 C 251.104,41.287 251.771,42.6203 251.5,44.5C 250.833,44.1667 250.167,43.8333 249.5,43.5C 249.5,42.5 249.5,41.5 249.5,40.5 Z"/></g>
<g><path style="opacity:0.004" fill="#fefffe" d="M 175.5,41.5 C 176.833,42.1667 177.833,43.1667 178.5,44.5C 178.5,44.8333 178.5,45.1667 178.5,45.5C 176.738,44.7377 175.738,43.4044 175.5,41.5 Z"/></g>
<g><path style="opacity:0.004" fill="#fefffe" d="M 141.5,44.5 C 141.5,44.1667 141.5,43.8333 141.5,43.5C 141.833,43.5 142.167,43.5 142.5,43.5C 142.833,43.5 143.167,43.5 143.5,43.5C 143.591,45.6977 142.925,46.0311 141.5,44.5 Z"/></g>
<g><path style="opacity:0.004" fill="#000000" d="M 252.5,43.5 C 253.833,44.1667 253.833,44.1667 252.5,43.5 Z"/></g>
<g><path style="opacity:0.008" fill="#777777" d="M 128.5,43.5 C 128.938,43.4346 129.272,43.6012 129.5,44C 128.883,46.277 128.216,48.4437 127.5,50.5C 127.245,49.0639 126.912,47.5639 126.5,46C 127.066,45.0053 127.733,44.172 128.5,43.5 Z"/></g>
<g><path style="opacity:0.004" fill="#fefffe" d="M 179.5,46.5 C 180.609,46.5569 181.609,46.8902 182.5,47.5C 182.5,47.8333 182.5,48.1667 182.5,48.5C 180.973,48.573 179.973,47.9063 179.5,46.5 Z"/></g>
<g><path style="opacity:0.004" fill="#fefffe" d="M 147.5,48.5 C 147.833,48.5 148.167,48.5 148.5,48.5C 148.5,48.8333 148.5,49.1667 148.5,49.5C 147.833,49.5 147.167,49.5 146.5,49.5C 146.167,49.5 145.833,49.5 145.5,49.5C 145.409,47.3023 146.075,46.9689 147.5,48.5 Z"/></g>
<g><path style="opacity:0.006" fill="#000000" d="M 150.5,50.5 C 150.167,50.5 149.833,50.5 149.5,50.5C 149.5,49.8333 149.167,49.5 148.5,49.5C 148.5,49.1667 148.5,48.8333 148.5,48.5C 148.435,48.0618 148.601,47.7284 149,47.5C 150.039,48.2438 150.539,49.2438 150.5,50.5 Z"/></g>
<g><path style="opacity:0.027" fill="#474747" d="M 191.5,57.5 C 187.827,55.1605 184.827,52.1605 182.5,48.5C 182.5,48.1667 182.5,47.8333 182.5,47.5C 183.496,47.5858 184.329,47.2524 185,46.5C 185.333,47.8333 185.667,49.1667 186,50.5C 189.829,51.7689 191.663,54.1022 191.5,57.5 Z"/></g>
<g><path style="opacity:0.007" fill="#000000" d="M 153.5,53.5 C 155.337,53.6395 155.67,54.3061 154.5,55.5C 153.702,55.0431 153.369,54.3764 153.5,53.5 Z"/></g>
<g><path style="opacity:0.005" fill="#000000" d="M 156.5,55.5 C 157.573,56.2506 157.74,57.2506 157,58.5C 155.272,57.6477 155.105,56.6477 156.5,55.5 Z"/></g>
<g><path style="opacity:0.007" fill="#000000" d="M 158.5,58.5 C 160.337,58.6395 160.67,59.3061 159.5,60.5C 158.702,60.0431 158.369,59.3764 158.5,58.5 Z"/></g>
<g><path style="opacity:0.004" fill="#000000" d="M 111.5,60.5 C 111.897,59.475 112.563,59.3083 113.5,60C 112.906,60.4643 112.239,60.631 111.5,60.5 Z"/></g>
<g><path style="opacity:0.004" fill="#c6c6c6" d="M 192.5,59.5 C 194.027,59.427 195.027,60.0937 195.5,61.5C 193.973,61.573 192.973,60.9063 192.5,59.5 Z"/></g>
<g><path style="opacity:0.889" fill="#030303" d="M 111.5,60.5 C 112.68,62.6929 113.68,65.0262 114.5,67.5C 114.499,73.6735 114.166,79.8402 113.5,86C 114.397,88.0871 115.064,90.2537 115.5,92.5C 114.637,91.537 113.97,91.537 113.5,92.5C 114.325,93.3857 115.325,93.719 116.5,93.5C 116.34,95.1992 116.506,96.8659 117,98.5C 117.654,97.3044 118.154,97.3044 118.5,98.5C 117.833,99.1667 117.167,99.8333 116.5,100.5C 117.554,102.201 118.554,103.868 119.5,105.5C 118.957,105.56 118.624,105.893 118.5,106.5C 119.521,107.901 120.521,109.235 121.5,110.5C 122.507,112.522 124.174,113.855 126.5,114.5C 125.757,115.182 125.091,115.849 124.5,116.5C 124.5,117.833 125.167,118.5 126.5,118.5C 128.411,118.574 129.578,119.574 130,121.5C 130.333,121.167 130.667,120.833 131,120.5C 131.74,121.749 131.573,122.749 130.5,123.5C 127.813,122.939 127.813,123.606 130.5,125.5C 132.937,129.269 136.271,131.936 140.5,133.5C 140.312,135.103 140.812,136.437 142,137.5C 142.5,149.162 142.667,160.829 142.5,172.5C 141.102,173.777 140.436,175.443 140.5,177.5C 140.64,179.03 141.307,180.03 142.5,180.5C 142.5,182.5 142.5,184.5 142.5,186.5C 141.883,186.389 141.383,186.056 141,185.5C 139.798,187.677 139.298,190.011 139.5,192.5C 137.326,192.92 135.326,192.92 133.5,192.5C 131.974,192.994 130.641,193.661 129.5,194.5C 122.581,194.554 115.748,194.554 109,194.5C 108.148,195.571 107.315,196.571 106.5,197.5C 106.265,196.903 105.765,196.57 105,196.5C 102.367,197.552 101.534,199.219 102.5,201.5C 99.3532,200.862 96.8532,201.862 95,204.5C 94.3603,206.265 94.5269,207.932 95.5,209.5C 94.4955,210.683 93.6622,212.016 93,213.5C 90.6293,212.223 88.1293,212.723 85.5,215C 76.1667,215.667 66.8333,215.667 57.5,215C 55.257,213.864 52.9237,213.03 50.5,212.5C 50.0269,211.094 49.0269,210.427 47.5,210.5C 45.9731,210.573 44.9731,209.906 44.5,208.5C 44.0949,204.43 42.0949,201.43 38.5,199.5C 37.913,200.233 37.913,201.233 38.5,202.5C 37.2323,199.538 35.399,196.872 33,194.5C 28.5489,194.5 23.7156,194.834 18.5,195.5C 18.2089,194.351 17.3756,193.684 16,193.5C 14.9302,193.528 14.0968,193.861 13.5,194.5C 11.2014,194.332 8.70135,194.666 6,195.5C 4.95501,194.627 4.12167,193.627 3.5,192.5C 2.83333,191.167 1.83333,190.167 0.5,189.5C 0.737305,188.209 0.403972,187.209 -0.5,186.5C -0.5,176.167 -0.5,165.833 -0.5,155.5C 0.833333,155.167 0.833333,154.833 -0.5,154.5C -0.5,152.167 -0.5,149.833 -0.5,147.5C 0.833333,147.167 0.833333,146.833 -0.5,146.5C -0.5,143.833 -0.5,141.167 -0.5,138.5C 0.649912,139.85 1.31658,139.684 1.5,138C 1.10099,136.272 0.434327,134.772 -0.5,133.5C -0.5,132.833 -0.5,132.167 -0.5,131.5C 0.166667,131.5 0.5,131.167 0.5,130.5C 1.39105,129.89 2.39105,129.557 3.5,129.5C 4.734,129.715 4.734,129.048 3.5,127.5C 4.10978,126.609 4.44312,125.609 4.5,124.5C 6.87639,123.794 8.20973,122.127 8.5,119.5C 8.35055,118.448 8.51722,117.448 9,116.5C 9.9138,117.654 10.7471,117.487 11.5,116C 10.2888,115.107 10.2888,114.274 11.5,113.5C 12.4255,114.641 13.2588,114.641 14,113.5C 14.7792,116.097 15.2792,116.097 15.5,113.5C 16.609,113.443 17.609,113.11 18.5,112.5C 21.3472,110.159 24.3472,108.659 27.5,108C 30.557,107.744 33.557,107.244 36.5,106.5C 38.3432,107.939 40.0099,107.772 41.5,106C 41.1667,105.667 40.8333,105.333 40.5,105C 43.557,104.744 46.557,104.244 49.5,103.5C 50.4461,103.987 51.4461,104.32 52.5,104.5C 55.3996,103.04 58.3996,101.873 61.5,101C 60.2617,100.31 60.2617,99.81 61.5,99.5C 62.1667,99.5 62.8333,99.5 63.5,99.5C 64.1667,99.5 64.5,99.1667 64.5,98.5C 64.5,97.8333 64.5,97.1667 64.5,96.5C 65.1667,96.1667 65.8333,95.8333 66.5,95.5C 66.8333,96.8333 67.1667,96.8333 67.5,95.5C 68.1098,94.609 68.4431,93.609 68.5,92.5C 69.2223,91.4489 70.2223,90.7822 71.5,90.5C 71.8333,91.8333 72.1667,91.8333 72.5,90.5C 72.8333,89.8333 73.1667,89.1667 73.5,88.5C 74.8198,86.1829 76.4864,84.1829 78.5,82.5C 79.1667,83.8333 79.8333,83.8333 80.5,82.5C 80.5,81.8333 80.8333,81.5 81.5,81.5C 82.8333,81.1667 82.8333,80.8333 81.5,80.5C 81.369,79.7611 81.5357,79.0944 82,78.5C 83.083,76.7593 84.2497,76.0926 85.5,76.5C 86.5,76.1667 87.1667,75.5 87.5,74.5C 88.0076,72.7673 88.841,72.434 90,73.5C 90.4796,71.867 91.3129,70.5336 92.5,69.5C 93.1667,69.1667 93.8333,68.8333 94.5,68.5C 95.8333,68.1667 95.8333,67.8333 94.5,67.5C 94.5,67.1667 94.5,66.8333 94.5,66.5C 97.743,65.9609 100.243,64.2943 102,61.5C 102.669,64.0278 103.502,64.0278 104.5,61.5C 106.743,60.5258 109.076,60.1924 111.5,60.5 Z M 80.5,172.5 C 80.6567,173.873 80.49,175.207 80,176.5C 79.3457,175.304 78.8457,175.304 78.5,176.5C 79.8532,177.524 80.5198,178.857 80.5,180.5C 78.7708,181.117 77.2708,182.117 76,183.5C 73.8707,182.137 73.3707,182.471 74.5,184.5C 72.1667,185.833 69.8333,185.833 67.5,184.5C 68.6293,182.471 68.1293,182.137 66,183.5C 65.2917,182.619 64.4584,181.953 63.5,181.5C 62.645,180.469 61.9783,179.303 61.5,178C 61.8919,176.989 62.5585,176.489 63.5,176.5C 61.1835,174.401 61.0168,172.068 63,169.5C 64.7713,168.696 66.2713,167.529 67.5,166C 69.9733,165.81 72.64,165.81 75.5,166C 78.1421,167.468 79.8088,169.635 80.5,172.5 Z"/></g>
<g><path style="opacity:0.004" fill="#000000" d="M 96.5,61.5 C 98.337,61.6395 98.6704,62.3061 97.5,63.5C 96.7025,63.0431 96.3691,62.3764 96.5,61.5 Z"/></g>
<g><path style="opacity:0.006" fill="#000000" d="M 163.5,63.5 C 161.663,63.3605 161.33,62.6939 162.5,61.5C 163.298,61.9569 163.631,62.6236 163.5,63.5 Z"/></g>
<g><path style="opacity:0.006" fill="#000000" d="M 163.5,63.5 C 165.337,63.6395 165.67,64.3061 164.5,65.5C 163.702,65.0431 163.369,64.3764 163.5,63.5 Z"/></g>
<g><path style="opacity:0.004" fill="#000000" d="M 91.5,65.5 C 91.8966,64.475 92.5632,64.3083 93.5,65C 92.9056,65.4643 92.2389,65.631 91.5,65.5 Z"/></g>
<g><path style="opacity:0.004" fill="#000000" d="M 88.5,67.5 C 89.0768,66.2267 89.7435,66.2267 90.5,67.5C 90.0302,68.463 89.3635,68.463 88.5,67.5 Z"/></g>
<g><path style="opacity:0.004" fill="#fefffe" d="M 94.5,66.5 C 94.5,66.8333 94.5,67.1667 94.5,67.5C 94.5,67.8333 94.5,68.1667 94.5,68.5C 93.8333,68.8333 93.1667,69.1667 92.5,69.5C 91.9836,68.2418 92.6503,67.2418 94.5,66.5 Z"/></g>
<g><path style="opacity:0.006" fill="#000000" d="M 166.5,66.5 C 168.337,66.6395 168.67,67.3061 167.5,68.5C 166.702,68.0431 166.369,67.3764 166.5,66.5 Z"/></g>
<g><path style="opacity:0.008" fill="#cacaca" d="M 197.5,65.5 C 198.833,67.5 198.833,69.5 197.5,71.5C 197.07,69.62 197.07,67.62 197.5,65.5 Z"/></g>
<g><path style="opacity:0.005" fill="#000000" d="M 169.5,68.5 C 170.573,69.2506 170.74,70.2506 170,71.5C 168.272,70.6477 168.105,69.6477 169.5,68.5 Z"/></g>
<g><path style="opacity:0.004" fill="#000000" d="M 86.5,69.5 C 87.525,69.8966 87.6917,70.5632 87,71.5C 86.5357,70.9056 86.369,70.2389 86.5,69.5 Z"/></g>
<g><path style="opacity:0.004" fill="#000000" d="M 83.5,71.5 C 85.337,71.6395 85.6704,72.3061 84.5,73.5C 83.7025,73.0431 83.3691,72.3764 83.5,71.5 Z"/></g>
<g><path style="opacity:0.004" fill="#000000" d="M 171.5,71.5 C 173.337,71.6395 173.67,72.3061 172.5,73.5C 171.702,73.0431 171.369,72.3764 171.5,71.5 Z"/></g>
<g><path style="opacity:0.008" fill="#b4b4b4" d="M 197.5,72.5 C 198.833,74.1667 198.833,75.8333 197.5,77.5C 197.178,75.5248 197.178,73.8582 197.5,72.5 Z"/></g>
<g><path style="opacity:0.02" fill="#4b4b4b" d="M 124.5,69.5 C 125.376,69.3691 126.043,69.7025 126.5,70.5C 125.956,72.326 125.956,74.326 126.5,76.5C 126.333,77.8333 126.167,79.1667 126,80.5C 125.809,78.2922 125.309,76.2922 124.5,74.5C 124.5,72.8333 124.5,71.1667 124.5,69.5 Z"/></g>
<g><path style="opacity:0.004" fill="#000000" d="M 81.5,74.5 C 82.525,74.8966 82.6917,75.5632 82,76.5C 81.5357,75.9056 81.369,75.2389 81.5,74.5 Z"/></g>
<g><path style="opacity:0.004" fill="#b8b8b8" d="M 87.5,74.5 C 87.1667,75.5 86.5,76.1667 85.5,76.5C 85.5,75.1667 86.1667,74.5 87.5,74.5 Z"/></g>
<g><path style="opacity:0.004" fill="#000000" d="M 176.5,76.5 C 174.972,76.4827 174.472,75.816 175,74.5C 175.717,75.0442 176.217,75.7109 176.5,76.5 Z"/></g>
<g><path style="opacity:0.004" fill="#fefffe" d="M 171.5,76.5 C 173.027,76.427 174.027,77.0937 174.5,78.5C 172.973,78.573 171.973,77.9063 171.5,76.5 Z"/></g>
<g><path style="opacity:0.004" fill="#000000" d="M 176.5,76.5 C 178.337,76.6395 178.67,77.3061 177.5,78.5C 176.702,78.0431 176.369,77.3764 176.5,76.5 Z"/></g>
<g><path style="opacity:0.004" fill="#000000" d="M 78.5,78.5 C 78.8966,77.475 79.5632,77.3083 80.5,78C 79.9056,78.4643 79.2389,78.631 78.5,78.5 Z"/></g>
<g><path style="opacity:0.004" fill="#000000" d="M 76.5,79.5 C 77.525,79.8966 77.6917,80.5632 77,81.5C 76.5357,80.9056 76.369,80.2389 76.5,79.5 Z"/></g>
<g><path style="opacity:0.008" fill="#b0b0b0" d="M 197.5,78.5 C 198.885,79.9473 198.552,80.9473 196.5,81.5C 197.103,80.3652 197.436,79.3652 197.5,78.5 Z"/></g>
<g><path style="opacity:0.008" fill="#858585" d="M 81.5,80.5 C 81.5,80.8333 81.5,81.1667 81.5,81.5C 80.8333,81.5 80.5,81.8333 80.5,82.5C 79.8333,82.5 79.1667,82.5 78.5,82.5C 78.9731,81.0937 79.9731,80.427 81.5,80.5 Z"/></g>
<g><path style="opacity:0.004" fill="#000000" d="M 73.5,82.5 C 74.525,82.8966 74.6917,83.5632 74,84.5C 73.5357,83.9056 73.369,83.2389 73.5,82.5 Z"/></g>
<g><path style="opacity:0.004" fill="#000000" d="M 70.5,84.5 C 72.337,84.6395 72.6704,85.3061 71.5,86.5C 70.7025,86.0431 70.3691,85.3764 70.5,84.5 Z"/></g>
<g><path style="opacity:0.004" fill="#000000" d="M 68.5,87.5 C 69.525,87.8966 69.6917,88.5632 69,89.5C 68.5357,88.9056 68.369,88.2389 68.5,87.5 Z"/></g>
<g><path style="opacity:0.004" fill="#b8b8b8" d="M 73.5,88.5 C 73.1667,89.1667 72.8333,89.8333 72.5,90.5C 72.1667,90.5 71.8333,90.5 71.5,90.5C 71.5,89.1667 72.1667,88.5 73.5,88.5 Z"/></g>
<g><path style="opacity:0.004" fill="#000000" d="M 65.5,91.5 C 65.8966,90.475 66.5632,90.3083 67.5,91C 66.9056,91.4643 66.2389,91.631 65.5,91.5 Z"/></g>
<g><path style="opacity:0.004" fill="#000000" d="M 62.5,92.5 C 64.337,92.6395 64.6704,93.3061 63.5,94.5C 62.7025,94.0431 62.3691,93.3764 62.5,92.5 Z"/></g>
<g><path style="opacity:0.016" fill="#7c7c7c" d="M 115.5,92.5 C 116.167,92.5 116.5,92.8333 116.5,93.5C 115.325,93.719 114.325,93.3857 113.5,92.5C 113.97,91.537 114.637,91.537 115.5,92.5 Z"/></g>
<g><path style="opacity:0.008" fill="#c4c4c4" d="M 68.5,92.5 C 68.4431,93.609 68.1098,94.609 67.5,95.5C 67.1667,95.5 66.8333,95.5 66.5,95.5C 66.427,93.9731 67.0937,92.9731 68.5,92.5 Z"/></g>
<g><path style="opacity:0.004" fill="#000000" d="M 60.5,95.5 C 61.525,95.8966 61.6917,96.5632 61,97.5C 60.5357,96.9056 60.369,96.2389 60.5,95.5 Z"/></g>
<g><path style="opacity:0.004" fill="#000000" d="M 57.5,97.5 C 59.337,97.6395 59.6704,98.3061 58.5,99.5C 57.7025,99.0431 57.3691,98.3764 57.5,97.5 Z"/></g>
<g><path style="opacity:0.008" fill="#c8c8c8" d="M 64.5,96.5 C 64.5,97.1667 64.5,97.8333 64.5,98.5C 63.8333,98.5 63.5,98.8333 63.5,99.5C 62.8333,99.5 62.1667,99.5 61.5,99.5C 62.1667,98.1667 63.1667,97.1667 64.5,96.5 Z"/></g>
<g><path style="opacity:0.004" fill="#000000" d="M 50.5,101.5 C 51.8333,102.167 51.8333,102.167 50.5,101.5 Z"/></g>
<g><path style="opacity:0.127" fill="#252525" d="M 128.5,89.5 C 128.5,90.1667 128.833,90.5 129.5,90.5C 130.65,94.4948 130.817,98.4948 130,102.5C 131,105.167 132,105.167 133,102.5C 135.167,104 135,105.167 132.5,106C 133.317,108.372 134.65,108.872 136.5,107.5C 136.5,107.833 136.5,108.167 136.5,108.5C 135.766,109.708 135.433,111.041 135.5,112.5C 134.5,112.5 133.5,112.5 132.5,112.5C 129.351,106.557 126.684,100.391 124.5,94C 125.073,91.5652 125.407,89.0652 125.5,86.5C 125.942,85.7688 126.109,84.7688 126,83.5C 126.333,83.8333 126.667,84.1667 127,84.5C 127.198,86.3817 127.698,88.0484 128.5,89.5 Z"/></g>
<g><path style="opacity:0.012" fill="#4d4d4d" d="M 256.5,93.5 C 256.833,93.5 257.167,93.5 257.5,93.5C 257.5,93.8333 257.5,94.1667 257.5,94.5C 256.512,96.4371 255.512,98.4371 254.5,100.5C 254.608,101.442 254.941,102.275 255.5,103C 253.816,104.209 252.483,105.709 251.5,107.5C 251.167,107.5 250.833,107.5 250.5,107.5C 252.518,103.58 253.852,99.413 254.5,95C 254.043,94.586 253.709,94.086 253.5,93.5C 254.233,92.913 255.233,92.913 256.5,93.5 Z"/></g>
<g><path style="opacity:0.004" fill="#000000" d="M 37.5,103.5 C 38.8333,104.167 38.8333,104.167 37.5,103.5 Z"/></g>
<g><path style="opacity:0.004" fill="#000000" d="M 24.5,105.5 C 25.525,105.897 25.6917,106.563 25,107.5C 24.5357,106.906 24.369,106.239 24.5,105.5 Z"/></g>
<g><path style="opacity:0.004" fill="#bfbfbf" d="M 119.5,105.5 C 120.316,107.144 121.65,108.31 123.5,109C 122.584,109.278 121.918,109.778 121.5,110.5C 120.521,109.235 119.521,107.901 118.5,106.5C 118.624,105.893 118.957,105.56 119.5,105.5 Z"/></g>
<g><path style="opacity:0.004" fill="#c9c9c9" d="M 250.5,107.5 C 250.833,107.5 251.167,107.5 251.5,107.5C 251.107,109.284 250.441,110.95 249.5,112.5C 248.957,112.44 248.624,112.107 248.5,111.5C 249.18,110.14 249.847,108.807 250.5,107.5 Z"/></g>
<g><path style="opacity:0.004" fill="#000000" d="M 16.5,108.5 C 17.8333,109.167 17.8333,109.167 16.5,108.5 Z"/></g>
<g><path style="opacity:0.005" fill="#000000" d="M 15.5,112.5 C 13.9719,112.483 13.4719,111.816 14,110.5C 14.7172,111.044 15.2172,111.711 15.5,112.5 Z"/></g>
<g><path style="opacity:0.012" fill="#afafaf" d="M 18.5,112.5 C 17.609,113.11 16.609,113.443 15.5,113.5C 15.5,113.167 15.5,112.833 15.5,112.5C 16.6522,111.375 17.6522,111.375 18.5,112.5 Z"/></g>
<g><path style="opacity:0.004" fill="#e8e8e8" d="M 132.5,112.5 C 133.551,113.222 134.218,114.222 134.5,115.5C 132.278,115.025 131.611,114.025 132.5,112.5 Z"/></g>
<g><path style="opacity:0.004" fill="#fefffe" d="M 246.5,116.5 C 246.167,117.5 245.5,118.167 244.5,118.5C 244.5,117.167 245.167,116.5 246.5,116.5 Z"/></g>
<g><path style="opacity:0.008" fill="#bdbdbd" d="M 124.5,116.5 C 125.5,116.833 126.167,117.5 126.5,118.5C 125.167,118.5 124.5,117.833 124.5,116.5 Z"/></g>
<g><path style="opacity:0.008" fill="#6b6b6b" d="M 8.5,119.5 C 8.20973,122.127 6.87639,123.794 4.5,124.5C 4.5,124.167 4.5,123.833 4.5,123.5C 6.08783,122.365 6.42117,121.031 5.5,119.5C 6.42463,118.438 7.42463,118.438 8.5,119.5 Z"/></g>
<g><path style="opacity:0.007" fill="#000000" d="M 4.5,123.5 C 3.42654,122.749 3.25988,121.749 4,120.5C 4.48278,121.448 4.64945,122.448 4.5,123.5 Z"/></g>
<g><path style="opacity:0.112" fill="#292929" d="M 248.5,113.5 C 248.573,115.027 247.906,116.027 246.5,116.5C 245.167,116.5 244.5,117.167 244.5,118.5C 240.773,123.23 236.44,127.23 231.5,130.5C 230.719,124.825 233.386,121.491 239.5,120.5C 239.238,119.022 239.571,117.689 240.5,116.5C 242.574,115.006 244.74,113.673 247,112.5C 247.383,113.056 247.883,113.389 248.5,113.5 Z"/></g>
<g><path style="opacity:0.004" fill="#e4e4e4" d="M 130.5,123.5 C 130.5,124.167 130.5,124.833 130.5,125.5C 127.813,123.606 127.813,122.939 130.5,123.5 Z"/></g>
<g><path style="opacity:0.006" fill="#000000" d="M 132.5,123.5 C 134.337,123.639 134.67,124.306 133.5,125.5C 132.702,125.043 132.369,124.376 132.5,123.5 Z"/></g>
<g><path style="opacity:0.004" fill="#d5d5d5" d="M 143.5,124.5 C 145.5,124.5 146.5,125.5 146.5,127.5C 144.856,127.19 143.856,126.19 143.5,124.5 Z"/></g>
<g><path style="opacity:0.007" fill="#000000" d="M 137.5,128.5 C 135.972,128.483 135.472,127.816 136,126.5C 136.717,127.044 137.217,127.711 137.5,128.5 Z"/></g>
<g><path style="opacity:0.02" fill="#999999" d="M 3.5,127.5 C 3.5,128.167 3.5,128.833 3.5,129.5C 2.39105,129.557 1.39105,129.89 0.5,130.5C 0.810179,128.856 1.81018,127.856 3.5,127.5 Z"/></g>
<g><path style="opacity:0.005" fill="#000000" d="M 137.5,128.5 C 139.465,128.948 139.798,129.948 138.5,131.5C 137.614,130.675 137.281,129.675 137.5,128.5 Z"/></g>
<g><path style="opacity:0.024" fill="#2b2b2b" d="M 155.5,135.5 C 152.074,133.32 149.074,130.653 146.5,127.5C 149.274,126.532 151.608,127.365 153.5,130C 153.167,130.333 152.833,130.667 152.5,131C 154.053,132.097 155.386,133.43 156.5,135C 156.272,135.399 155.938,135.565 155.5,135.5 Z"/></g>
<g><path style="opacity:0.007" fill="#000000" d="M 140.5,133.5 C 140.639,131.663 141.306,131.33 142.5,132.5C 142.043,133.298 141.376,133.631 140.5,133.5 Z"/></g>
<g><path style="opacity:0.02" fill="#767676" d="M -0.5,133.5 C 0.434327,134.772 1.10099,136.272 1.5,138C 1.31658,139.684 0.649912,139.85 -0.5,138.5C -0.5,136.833 -0.5,135.167 -0.5,133.5 Z"/></g>
<g><path style="opacity:0.016" fill="#696969" d="M 226.5,150.5 C 226.548,152.833 226.215,155.166 225.5,157.5C 223.822,154.69 224.155,152.357 226.5,150.5 Z"/></g>
<g><path style="opacity:0.016" fill="#555555" d="M 155.5,165.5 C 155.5,165.167 155.5,164.833 155.5,164.5C 156.693,164.97 157.36,165.97 157.5,167.5C 157.333,168.5 157.167,169.5 157,170.5C 156.802,168.618 156.302,166.952 155.5,165.5 Z"/></g>
<g><path style="opacity:0.008" fill="#636363" d="M 80.5,172.5 C 81.8333,175.167 81.8333,177.833 80.5,180.5C 80.5198,178.857 79.8532,177.524 78.5,176.5C 78.8457,175.304 79.3457,175.304 80,176.5C 80.49,175.207 80.6567,173.873 80.5,172.5 Z"/></g>
<g><path style="opacity:0.029" fill="#3b3b3b" d="M 142.5,172.5 C 142.5,175.167 142.5,177.833 142.5,180.5C 141.307,180.03 140.64,179.03 140.5,177.5C 140.436,175.443 141.102,173.777 142.5,172.5 Z"/></g>
<g><path style="opacity:0.004" fill="#000000" d="M 64.5,178.5 C 66.337,178.639 66.6704,179.306 65.5,180.5C 64.7025,180.043 64.3691,179.376 64.5,178.5 Z"/></g>
<g><path style="opacity:0.004" fill="#000000" d="M 75.5,179.5 C 76.0768,178.227 76.7435,178.227 77.5,179.5C 77.0302,180.463 76.3635,180.463 75.5,179.5 Z"/></g>
<g><path style="opacity:0.004" fill="#cfcfcf" d="M 0.5,189.5 C 1.83333,190.167 2.83333,191.167 3.5,192.5C 1.5,192.5 0.5,191.5 0.5,189.5 Z"/></g>
<g><path style="opacity:0.029" fill="#333333" d="M 142.5,186.5 C 142.216,188.877 142.216,191.044 142.5,193C 141.667,193.833 140.833,194.667 140,195.5C 136.798,194.888 133.298,194.555 129.5,194.5C 130.641,193.661 131.974,192.994 133.5,192.5C 135.326,192.92 137.326,192.92 139.5,192.5C 139.298,190.011 139.798,187.677 141,185.5C 141.383,186.056 141.883,186.389 142.5,186.5 Z"/></g>
<g><path style="opacity:0.012" fill="#6a6a6a" d="M 13.5,194.5 C 14.0968,193.861 14.9302,193.528 16,193.5C 17.3756,193.684 18.2089,194.351 18.5,195.5C 16.7648,194.943 15.0982,194.61 13.5,194.5 Z"/></g>
<g><path style="opacity:0.007" fill="#656565" d="M 44.5,208.5 C 42.8333,206.167 40.8333,204.167 38.5,202.5C 37.913,201.233 37.913,200.233 38.5,199.5C 42.0949,201.43 44.0949,204.43 44.5,208.5 Z"/></g>
<g><path style="opacity:0.112" fill="#242424" d="M 106.5,197.5 C 105.68,199.14 104.847,200.807 104,202.5C 101.585,205.317 98.7513,207.651 95.5,209.5C 94.5269,207.932 94.3603,206.265 95,204.5C 96.8532,201.862 99.3532,200.862 102.5,201.5C 101.534,199.219 102.367,197.552 105,196.5C 105.765,196.57 106.265,196.903 106.5,197.5 Z"/></g>
<g><path style="opacity:0.008" fill="#8e8e8e" d="M 225.5,203.5 C 225.737,204.791 225.404,205.791 224.5,206.5C 223.185,205.105 223.519,204.105 225.5,203.5 Z"/></g>
<g><path style="opacity:0.004" fill="#e8e8e8" d="M 47.5,210.5 C 49.0269,210.427 50.0269,211.094 50.5,212.5C 48.8212,212.715 47.8212,212.048 47.5,210.5 Z"/></g>
<g><path style="opacity:0.008" fill="#909090" d="M 222.5,210.5 C 222.144,212.19 221.144,213.19 219.5,213.5C 219.563,210.805 220.563,209.805 222.5,210.5 Z"/></g>
<g><path style="opacity:0.012" fill="#7d7d7d" d="M 167.5,219.5 C 166.094,219.027 165.427,218.027 165.5,216.5C 165.56,215.957 165.893,215.624 166.5,215.5C 167.429,216.689 167.762,218.022 167.5,219.5 Z"/></g>
<g><path style="opacity:0.004" fill="#f2f2f2" d="M 172.5,222.5 C 174.38,222.229 175.713,222.896 176.5,224.5C 174.847,224.34 173.514,223.674 172.5,222.5 Z"/></g>
<g><path style="opacity:0.012" fill="#737373" d="M 176.5,224.5 C 178.199,224.34 179.866,224.506 181.5,225C 180.944,225.383 180.611,225.883 180.5,226.5C 179.603,225.402 178.77,225.402 178,226.5C 177.283,225.956 176.783,225.289 176.5,224.5 Z"/></g>
</svg>
